<mxfile host="app.diagrams.net" modified="2024-07-11T10:06:55.844Z" agent="Mozilla/5.0 (X11; Linux x86_64) AppleWebKit/537.36 (KHTML, like Gecko) Chrome/126.0.0.0 Safari/537.36" version="24.6.4" etag="eSuZtcHpkCu_u1gCvWbE" type="github">
  <diagram name="Page-1" id="dbmNRNSIdNWLljhCohDQ">
    <mxGraphModel>
      <root>
        <mxCell id="0" />
        <mxCell id="1" parent="0" />
      </root>
    </mxGraphModel>
  </diagram>
</mxfile>
